<svg width="1600" height="1000" viewBox="0 0 1600 1000" fill="none" xmlns="http://www.w3.org/2000/svg">
  <style>
    .bg { fill: #f3f1ec; }
    .sidebar { fill: #fbfaf7; stroke: #d8d1c3; stroke-width: 1.5; }
    .content { fill: #f5f3ee; }
    .surface { fill: #fffdf8; stroke: #d8d1c3; stroke-width: 1.5; rx: 16; ry: 16; }
    .surface-tight { fill: #fffdf8; stroke: #d8d1c3; stroke-width: 1.5; rx: 12; ry: 12; }
    .active { fill: #e9eefc; stroke: #7a92cc; stroke-width: 1.5; rx: 12; ry: 12; }
    .muted { fill: #ece7dc; rx: 8; ry: 8; }
    .chip { fill: #eee8db; stroke: #d0c7b6; stroke-width: 1; rx: 999; ry: 999; }
    .note { fill: #fff2c7; stroke: #b49b49; stroke-width: 1.5; rx: 12; ry: 12; }
    .title { font: 700 18px Arial, sans-serif; fill: #221d16; }
    .label { font: 600 15px Arial, sans-serif; fill: #322b22; }
    .text { font: 400 13px Arial, sans-serif; fill: #645947; }
    .small { font: 400 12px Arial, sans-serif; fill: #756958; }
    .note-text { font: 400 12px Arial, sans-serif; fill: #564917; }
    .dash { stroke: #c7bfaf; stroke-width: 1.5; stroke-dasharray: 7 6; }
  </style>

  <rect class="bg" x="0" y="0" width="1600" height="1000"/>

  <rect class="sidebar" x="32" y="24" width="270" height="952" rx="22"/>
  <rect class="surface-tight" x="50" y="42" width="234" height="64" rx="14"/>
  <circle cx="82" cy="74" r="13" fill="#d6c59b"/>
  <rect class="muted" x="108" y="61" width="116" height="10" rx="5"/>
  <rect class="muted" x="108" y="77" width="84" height="8" rx="4"/>
  <text class="small" x="50" y="128">Logo row moved into sidebar top</text>

  <rect class="active" x="50" y="166" width="216" height="44" rx="12"/>
  <text class="label" x="74" y="193">Home</text>

  <rect class="surface-tight" x="50" y="220" width="216" height="44" rx="12"/>
  <text class="label" x="74" y="247">Employees</text>

  <rect class="surface-tight" x="50" y="274" width="216" height="44" rx="12"/>
  <text class="label" x="74" y="301">Resumes</text>

  <rect class="surface-tight" x="50" y="328" width="216" height="44" rx="12"/>
  <text class="label" x="74" y="355">Revision Flows</text>

  <line class="dash" x1="50" y1="844" x2="266" y2="844"/>
  <rect class="surface-tight" x="50" y="864" width="216" height="72" rx="12"/>
  <circle cx="84" cy="900" r="14" fill="#d8d1c3"/>
  <rect class="muted" x="108" y="889" width="98" height="9" rx="4"/>
  <rect class="muted" x="108" y="905" width="70" height="8" rx="4"/>

  <rect class="content" x="326" y="24" width="1242" height="952" rx="22"/>

  <rect class="surface" x="358" y="42" width="1178" height="84" rx="16"/>
  <text class="small" x="390" y="68">Breadcrumb / parent section</text>
  <rect class="muted" x="390" y="78" width="148" height="8" rx="4"/>
  <rect class="muted" x="548" y="78" width="14" height="8" rx="4"/>
  <rect class="muted" x="572" y="78" width="116" height="8" rx="4"/>
  <text class="title" x="390" y="112">Page Header Lives In Content Area</text>

  <rect class="chip" x="1198" y="62" width="98" height="30" rx="15"/>
  <text class="small" x="1224" y="81">Secondary</text>
  <rect class="chip" x="1308" y="62" width="98" height="30" rx="15"/>
  <text class="small" x="1338" y="81">Action</text>
  <rect class="chip" x="1418" y="54" width="86" height="38" rx="19" fill="#e9eefc" stroke="#7a92cc"/>
  <text class="small" x="1441" y="77">Primary</text>

  <rect class="surface" x="358" y="146" width="1178" height="86" rx="16"/>
  <text class="small" x="390" y="172">Page toolbar pattern</text>
  <rect class="muted" x="390" y="184" width="188" height="11" rx="5"/>
  <rect class="muted" x="390" y="202" width="262" height="9" rx="4"/>
  <rect class="chip" x="1198" y="172" width="84" height="30" rx="15"/>
  <rect class="chip" x="1294" y="172" width="84" height="30" rx="15"/>
  <rect class="chip" x="1390" y="172" width="114" height="30" rx="15" fill="#e9eefc" stroke="#7a92cc"/>
  <text class="small" x="1190" y="223">Left: breadcrumb + title</text>
  <text class="small" x="1356" y="223">Right: actions</text>

  <rect class="surface" x="358" y="254" width="770" height="674" rx="18"/>
  <text class="title" x="390" y="288">Main Page Content</text>
  <rect class="surface-tight" x="390" y="312" width="706" height="92" rx="14"/>
  <rect class="muted" x="414" y="336" width="194" height="12" rx="6"/>
  <rect class="muted" x="414" y="358" width="632" height="8" rx="4"/>
  <rect class="muted" x="414" y="375" width="598" height="8" rx="4"/>
  <rect class="muted" x="414" y="392" width="524" height="8" rx="4"/>

  <rect class="surface-tight" x="390" y="426" width="706" height="144" rx="14"/>
  <rect class="muted" x="414" y="450" width="140" height="12" rx="6"/>
  <rect class="muted" x="414" y="473" width="654" height="8" rx="4"/>
  <rect class="muted" x="414" y="490" width="624" height="8" rx="4"/>
  <rect class="muted" x="414" y="507" width="610" height="8" rx="4"/>
  <rect class="muted" x="414" y="532" width="110" height="34" rx="8"/>
  <rect class="muted" x="536" y="532" width="96" height="34" rx="8"/>

  <rect class="surface-tight" x="390" y="592" width="706" height="144" rx="14"/>
  <rect class="muted" x="414" y="616" width="156" height="12" rx="6"/>
  <rect class="muted" x="414" y="639" width="654" height="8" rx="4"/>
  <rect class="muted" x="414" y="656" width="629" height="8" rx="4"/>
  <rect class="muted" x="414" y="673" width="578" height="8" rx="4"/>
  <rect class="muted" x="414" y="698" width="128" height="24" rx="8"/>

  <rect class="surface" x="1152" y="254" width="384" height="674" rx="18"/>
  <text class="title" x="1184" y="288">Side Tools / Context</text>
  <rect class="surface-tight" x="1184" y="312" width="320" height="120" rx="14"/>
  <rect class="muted" x="1208" y="336" width="168" height="12" rx="6"/>
  <rect class="muted" x="1208" y="360" width="264" height="8" rx="4"/>
  <rect class="muted" x="1208" y="377" width="232" height="8" rx="4"/>
  <rect class="muted" x="1208" y="396" width="120" height="26" rx="8"/>

  <rect class="surface-tight" x="1184" y="452" width="320" height="160" rx="14"/>
  <rect class="muted" x="1208" y="476" width="146" height="12" rx="6"/>
  <rect class="muted" x="1208" y="500" width="264" height="8" rx="4"/>
  <rect class="muted" x="1208" y="517" width="250" height="8" rx="4"/>
  <rect class="muted" x="1208" y="534" width="238" height="8" rx="4"/>
  <rect class="muted" x="1208" y="560" width="92" height="28" rx="8"/>

  <rect class="surface-tight" x="1184" y="632" width="320" height="264" rx="14"/>
  <rect class="muted" x="1208" y="656" width="176" height="12" rx="6"/>
  <rect class="muted" x="1208" y="680" width="264" height="8" rx="4"/>
  <rect class="muted" x="1208" y="697" width="248" height="8" rx="4"/>
  <rect class="muted" x="1208" y="714" width="220" height="8" rx="4"/>
  <rect class="muted" x="1208" y="742" width="268" height="54" rx="10"/>
  <rect class="muted" x="1208" y="808" width="268" height="54" rx="10"/>

  <rect class="note" x="934" y="42" width="228" height="52" rx="12"/>
  <text class="note-text" x="954" y="64">Remove full-width top header.</text>
  <text class="note-text" x="954" y="82">Keep brand row inside sidebar.</text>

  <rect class="note" x="714" y="146" width="312" height="52" rx="12"/>
  <text class="note-text" x="734" y="168">Use a reusable page toolbar across views,</text>
  <text class="note-text" x="734" y="186">similar to resume detail but more general.</text>

  <rect class="note" x="612" y="882" width="336" height="52" rx="12"/>
  <text class="note-text" x="632" y="904">Main content gets the focus. Header becomes local</text>
  <text class="note-text" x="632" y="922">to the page, not a separate app-wide strip.</text>
</svg>
