<svg width="1400" height="1100" viewBox="0 0 1400 1100" fill="none" xmlns="http://www.w3.org/2000/svg">
  <style>.bg{fill:#f6f6f6}.panel{fill:#fff;stroke:#222;stroke-width:2}.soft{fill:#efefef;stroke:#222;stroke-width:2}.title{font:28px sans-serif;font-weight:700;fill:#111}.section{font:20px sans-serif;font-weight:700;fill:#111}.small{font:13px sans-serif;fill:#333}</style>
  <rect class="bg" width="1400" height="1100"/><text class="title" x="60" y="60">New Assignment Low-Fi</text>
  <rect class="panel" x="120" y="120" width="760" height="860" rx="12"/><text class="section" x="150" y="170">Assignment form</text>
  <rect class="soft" x="150" y="200" width="700" height="74" rx="8"/><rect class="soft" x="150" y="292" width="700" height="74" rx="8"/><rect class="soft" x="150" y="384" width="700" height="140" rx="8"/><rect class="soft" x="150" y="542" width="340" height="74" rx="8"/><rect class="soft" x="510" y="542" width="340" height="74" rx="8"/><rect class="soft" x="150" y="634" width="700" height="74" rx="8"/><rect class="soft" x="150" y="726" width="700" height="74" rx="8"/><rect class="soft" x="150" y="818" width="220" height="48" rx="8"/><rect class="soft" x="388" y="818" width="140" height="48" rx="8"/>
  <text class="small" x="172" y="240">Client name</text><text class="small" x="172" y="332">Role</text><text class="small" x="172" y="452">Description</text><text class="small" x="172" y="582">Start date</text><text class="small" x="532" y="582">End date</text><text class="small" x="172" y="674">Technologies</text><text class="small" x="172" y="766">Keywords / current flag area</text><text class="small" x="230" y="848">Save</text><text class="small" x="432" y="848">Cancel</text>
  <rect class="soft" x="920" y="120" width="320" height="860" rx="12"/><text class="section" x="948" y="170">Context panel</text><text class="small" x="948" y="208">Good place for:</text><text class="small" x="948" y="236">- linked resume / branch</text><text class="small" x="948" y="262">- formatting guidance</text><text class="small" x="948" y="288">- examples or AI assist</text></svg>
