<svg width="1400" height="960" viewBox="0 0 1400 960" fill="none" xmlns="http://www.w3.org/2000/svg">
  <style>.bg{fill:#f6f6f6}.panel{fill:#fff;stroke:#222;stroke-width:2}.soft{fill:#efefef;stroke:#222;stroke-width:2}.title{font:28px sans-serif;font-weight:700;fill:#111}.section{font:20px sans-serif;font-weight:700;fill:#111}.small{font:13px sans-serif;fill:#333}.muted{font:13px sans-serif;fill:#666}</style>
  <rect class="bg" width="1400" height="960"/><text class="title" x="60" y="60">Employee Import Low-Fi</text>
  <rect class="panel" x="60" y="110" width="1280" height="100" rx="12"/><text class="section" x="90" y="156">Header + back button</text><rect class="soft" x="1160" y="134" width="150" height="42" rx="8"/><text class="small" x="1212" y="160">Back</text>
  <rect class="panel" x="60" y="240" width="1280" height="640" rx="12"/>
  <rect class="soft" x="90" y="270" width="320" height="76" rx="8"/><text class="small" x="114" y="306">Description / instructions</text>
  <rect class="soft" x="90" y="370" width="220" height="60" rx="8"/><text class="small" x="130" y="405">Language toggle</text>
  <rect class="soft" x="90" y="454" width="840" height="300" rx="8"/><text class="small" x="116" y="492">Large JSON textarea / parsed DOCX content</text>
  <rect class="soft" x="950" y="454" width="360" height="180" rx="8"/><text class="small" x="976" y="490">Result / success summary</text><text class="muted" x="976" y="516">Created / skipped counts</text>
  <rect class="soft" x="90" y="778" width="140" height="44" rx="8"/><rect class="soft" x="244" y="778" width="160" height="44" rx="8"/><rect class="soft" x="418" y="778" width="190" height="44" rx="8"/>
  <text class="small" x="126" y="805">Import</text><text class="small" x="288" y="805">Upload JSON</text><text class="small" x="470" y="805">Upload DOCX</text>
</svg>
