<svg width="1400" height="980" viewBox="0 0 1400 980" fill="none" xmlns="http://www.w3.org/2000/svg">
  <style>.bg{fill:#f6f6f6}.panel{fill:#fff;stroke:#222;stroke-width:2}.soft{fill:#efefef;stroke:#222;stroke-width:2}.title{font:28px sans-serif;font-weight:700;fill:#111}.section{font:20px sans-serif;font-weight:700;fill:#111}.small{font:13px sans-serif;fill:#333}</style>
  <rect class="bg" width="1400" height="980"/><text class="title" x="60" y="60">Resume Edit Low-Fi</text>
  <rect class="panel" x="80" y="120" width="740" height="780" rx="12"/><text class="section" x="110" y="170">Resume fields</text>
  <rect class="soft" x="110" y="200" width="680" height="78" rx="8"/><rect class="soft" x="110" y="296" width="680" height="180" rx="8"/><rect class="soft" x="110" y="494" width="680" height="180" rx="8"/><rect class="soft" x="110" y="700" width="150" height="44" rx="8"/><rect class="soft" x="280" y="700" width="150" height="44" rx="8"/>
  <text class="small" x="136" y="242">Consultant title</text><text class="small" x="136" y="336">Presentation</text><text class="small" x="136" y="534">Summary</text><text class="small" x="160" y="728">Save</text><text class="small" x="334" y="728">Back</text>
  <rect class="panel" x="860" y="120" width="460" height="780" rx="12"/><text class="section" x="890" y="170">Skills editor block</text><rect class="soft" x="890" y="200" width="400" height="660" rx="8"/><text class="small" x="916" y="240">Skills editor UI and related controls</text>
</svg>
